<?xml version="1.0" encoding="utf-8"?>
<!-- Generator: Adobe Illustrator 16.0.3, SVG Export Plug-In . SVG Version: 6.00 Build 0)  -->
<!DOCTYPE svg PUBLIC "-//W3C//DTD SVG 1.1//EN" "http://www.w3.org/Graphics/SVG/1.1/DTD/svg11.dtd">
<svg version="1.1" id="Layer_1" xmlns="http://www.w3.org/2000/svg" xmlns:xlink="http://www.w3.org/1999/xlink" x="0px" y="0px"
	 width="40px" height="40px" viewBox="0 0 40 40" enable-background="new 0 0 40 40" xml:space="preserve">
<g>
	<path fill="#1E6531" d="M97.024-15.991c0.161-0.161,0.253-0.385,0.253-0.612v-7.352c0-0.228-0.092-0.45-0.253-0.611
		s-0.384-0.254-0.612-0.254H82.845v-3.123c0-0.326-0.185-0.626-0.476-0.772c-0.29-0.146-0.641-0.117-0.903,0.076l-10.354,7.641
		c-0.221,0.163-0.352,0.42-0.352,0.694s0.13,0.532,0.351,0.696l4.314,3.204c-0.178,0.718-0.273,1.469-0.273,2.241
		c0,1.116,0.197,2.187,0.558,3.18h-4.084c-0.241,0-0.476,0.098-0.646,0.268c-0.171,0.171-0.269,0.406-0.269,0.647v7.351
		c0,0.242,0.098,0.478,0.269,0.647s0.405,0.268,0.646,0.268h12.492v3.074c0,0.345,0.194,0.662,0.502,0.816
		c0.307,0.155,0.679,0.124,0.955-0.08L95.93-5.633c0.232-0.172,0.37-0.443,0.37-0.734c0.001-0.29-0.136-0.563-0.369-0.735
		l-3.293-2.445c0.776-1.362,1.223-2.938,1.223-4.615c0-0.537-0.048-1.063-0.135-1.575h2.687
		C96.641-15.738,96.863-15.831,97.024-15.991z M84.506-5.798c-4.611,0-8.363-3.753-8.363-8.365c0-4.613,3.752-8.364,8.363-8.364
		c4.612,0,8.364,3.751,8.364,8.364C92.87-9.551,89.118-5.798,84.506-5.798z"/>
	<path fill="#FFFFFF" d="M76.143-14.163c0,4.612,3.752,8.365,8.363,8.365c4.612,0,8.364-3.753,8.364-8.365
		c0-4.613-3.752-8.364-8.364-8.364C79.895-22.527,76.143-18.776,76.143-14.163z M91.026-14.163c0,3.552-2.878,6.432-6.432,6.432
		c-3.551,0-6.43-2.88-6.43-6.432s2.879-6.432,6.43-6.432C88.148-20.595,91.026-17.715,91.026-14.163z"/>
	<path fill="#FFFFFF" d="M84.368-9.257h0.736c0.222,0,0.401-0.179,0.401-0.4v-0.685c0.589-0.088,1.102-0.272,1.538-0.558
		c0.687-0.454,1.039-1.078,1.056-1.877c0.009-0.497-0.129-0.92-0.416-1.268c-0.466-0.555-1.191-0.902-2.178-1.04v-1.387
		c0.173,0.082,0.341,0.191,0.502,0.331c0.099,0.082,0.214,0.124,0.344,0.125c0.105,0,0.251-0.073,0.251-0.073l0.003-0.001
		l0.824-0.518c0.112-0.071,0.171-0.162,0.173-0.273c0-0.089-0.035-0.166-0.107-0.233c-0.515-0.585-1.179-0.948-1.989-1.089v-0.78
		c0-0.222-0.18-0.402-0.401-0.402h-0.736c-0.221,0-0.402,0.181-0.402,0.402v0.76c-0.381,0.053-0.725,0.149-1.031,0.289
		c-0.991,0.451-1.476,1.127-1.459,2.021c0.008,0.441,0.141,0.831,0.397,1.171c0.43,0.576,1.128,0.938,2.093,1.087v1.73
		c-0.416-0.147-0.811-0.422-1.183-0.824c-0.081-0.106-0.189-0.159-0.326-0.159c-0.073,0-0.22,0.063-0.22,0.063l-0.002,0.002
		l-0.75,0.44c-0.129,0.074-0.191,0.173-0.189,0.294c0.003,0.08,0.031,0.15,0.088,0.214c0.195,0.273,0.458,0.534,0.786,0.784
		c0.531,0.408,1.131,0.663,1.796,0.769v0.684C83.966-9.436,84.147-9.257,84.368-9.257z M85.506-13.469
		c0.397,0.125,0.599,0.356,0.597,0.697c-0.004,0.316-0.148,0.563-0.435,0.736c-0.051,0.032-0.106,0.059-0.162,0.085V-13.469z
		 M83.48-15.907c-0.002-0.248,0.141-0.441,0.43-0.578l0.056-0.022v1.229C83.646-15.402,83.483-15.611,83.48-15.907z"/>
	<path fill="#00CD00" d="M83.48-15.907c0.003,0.296,0.165,0.505,0.485,0.629v-1.229l-0.056,0.022
		C83.621-16.349,83.479-16.155,83.48-15.907z"/>
	<path fill="#00CD00" d="M85.506-11.95c0.056-0.026,0.111-0.053,0.162-0.085c0.286-0.174,0.431-0.42,0.435-0.736
		c0.002-0.341-0.199-0.572-0.597-0.697V-11.95z"/>
	<path fill="#00CD00" d="M78.165-14.163c0,3.552,2.879,6.432,6.43,6.432c3.554,0,6.432-2.88,6.432-6.432s-2.878-6.432-6.432-6.432
		C81.044-20.595,78.165-17.715,78.165-14.163z M85.506-18.982v0.78c0.811,0.141,1.475,0.504,1.989,1.089
		c0.072,0.067,0.107,0.145,0.107,0.233c-0.002,0.111-0.061,0.202-0.173,0.273l-0.824,0.518l-0.003,0.001
		c0,0-0.146,0.073-0.251,0.073c-0.13-0.001-0.245-0.043-0.344-0.125c-0.161-0.14-0.329-0.249-0.502-0.331v1.387
		c0.986,0.138,1.712,0.485,2.178,1.04c0.287,0.348,0.425,0.771,0.416,1.268c-0.017,0.799-0.369,1.423-1.056,1.877
		c-0.437,0.285-0.949,0.47-1.538,0.558v0.685c0,0.222-0.18,0.4-0.401,0.4h-0.736c-0.221,0-0.402-0.179-0.402-0.4v-0.684
		c-0.665-0.105-1.265-0.36-1.796-0.769c-0.328-0.25-0.591-0.511-0.786-0.784c-0.057-0.063-0.085-0.134-0.088-0.214
		c-0.002-0.121,0.061-0.22,0.189-0.294l0.75-0.44l0.002-0.002c0,0,0.146-0.063,0.22-0.063c0.137,0,0.245,0.053,0.326,0.159
		c0.372,0.402,0.767,0.677,1.183,0.824v-1.73c-0.965-0.148-1.663-0.511-2.093-1.087c-0.257-0.34-0.39-0.729-0.397-1.171
		c-0.017-0.895,0.468-1.57,1.459-2.021c0.307-0.14,0.65-0.236,1.031-0.289v-0.76c0-0.222,0.182-0.402,0.402-0.402h0.736
		C85.326-19.385,85.506-19.204,85.506-18.982z"/>
</g>
<g>
	<path fill="none" d="M14.706,7.054c-0.545,0-1.041-0.164-1.412-0.443l-0.119-0.108v1.312h13.65V6.502L26.706,6.61
		c-0.372,0.279-0.868,0.443-1.412,0.443H14.706z"/>
	<path fill="#1E6531" d="M12.735,4.646c-0.131,0.135-0.247,0.279-0.34,0.441c-0.165,0.287-0.263,0.618-0.262,0.966v1.761h1.09V6.502
		c-0.298-0.27-0.496-0.624-0.496-1.025V4.7L12.735,4.646z"/>
	<path fill="#1E6531" d="M26.825,6.502v1.312h1.089V6.053c0-0.348-0.097-0.679-0.262-0.966c-0.093-0.161-0.209-0.305-0.339-0.438
		L27.32,4.7v0.776C27.32,5.878,27.122,6.232,26.825,6.502z"/>
	<path fill="#81BEA9" d="M26.706,3.565c-0.372-0.278-0.868-0.443-1.412-0.443H14.706c-0.545,0-1.041,0.165-1.412,0.443
		c-0.353,0.265-0.589,0.647-0.607,1.08L12.679,4.7v0.776c0,0.401,0.198,0.756,0.496,1.025l0.119,0.108
		c0.371,0.279,0.867,0.443,1.412,0.443h10.588c0.544,0,1.04-0.164,1.412-0.443l0.119-0.108c0.297-0.27,0.495-0.624,0.495-1.025V4.7
		l-0.007-0.052C27.295,4.214,27.06,3.83,26.706,3.565z"/>
	<g>
		<path fill="#1E6531" d="M7.704,21.546c0.042-0.042,0.099-0.064,0.156-0.064h0.415v-0.636H4.345v13.088h31.31V20.846h-3.93v0.636
			h0.415c0.058,0,0.115,0.022,0.155,0.064c0.042,0.04,0.064,0.097,0.064,0.156v3.81c0,0.06-0.022,0.114-0.064,0.156
			s-0.098,0.066-0.155,0.066h-3.812c-0.058,0-0.114-0.025-0.155-0.066s-0.066-0.098-0.066-0.156v-3.81
			c0-0.06,0.025-0.116,0.066-0.156c0.041-0.042,0.098-0.064,0.155-0.064h0.415v-0.636H11.257v0.636h0.414
			c0.058,0,0.114,0.022,0.155,0.064c0.042,0.04,0.065,0.097,0.065,0.156v3.81c0,0.06-0.023,0.114-0.065,0.156
			c-0.041,0.042-0.098,0.066-0.155,0.066H7.86c-0.058,0-0.114-0.025-0.156-0.066C7.663,25.627,7.64,25.57,7.64,25.512v-3.81
			C7.64,21.643,7.663,21.586,7.704,21.546z"/>
		<path fill="#1E6531" d="M1.997,20.846V33.72c0,1.744,1.414,3.158,3.16,3.158h29.686c1.745,0,3.159-1.414,3.159-3.158V20.846
			h-1.907v13.309v0.221H3.901V20.846H1.997z"/>
		<polygon fill="#81BEA9" points="3.901,20.846 3.901,34.375 36.096,34.375 36.096,34.154 36.096,20.846 35.654,20.846 
			35.654,33.934 4.345,33.934 4.345,20.846 		"/>
		<path fill="#00CD00" d="M31.725,20.846h3.93h0.44h1.907h0.718c0.059,0,0.114-0.023,0.155-0.064
			c0.043-0.042,0.065-0.098,0.065-0.156v-9.498c0-1.83-1.482-3.313-3.313-3.313h-7.713h-1.089H13.174h-1.089H4.37
			C2.541,7.814,1.06,9.297,1.06,11.127v9.498c0,0.059,0.022,0.114,0.063,0.156c0.042,0.041,0.097,0.064,0.156,0.064h0.718h1.904
			h0.443h3.931v-2.54v-0.441h0.439h2.1h0.441v0.441v2.54h17.487v-2.54v-0.441h0.441h2.099h0.441v0.441V20.846z"/>
		<g>
			<g>
				<path fill="#00CD00" d="M11.449,25.292v-3.369H8.08v3.369H11.449z M8.715,23.606v-0.828c0-0.058,0.024-0.114,0.065-0.155
					c0.04-0.042,0.098-0.065,0.156-0.065h1.655c0.059,0,0.116,0.023,0.158,0.065c0.04,0.041,0.064,0.098,0.064,0.155v0.828v0.829
					c0,0.059-0.024,0.114-0.064,0.156c-0.043,0.042-0.098,0.063-0.158,0.063H8.937c-0.059,0-0.116-0.022-0.156-0.063
					c-0.041-0.042-0.065-0.099-0.065-0.156V23.606z"/>
				<path fill="#FFFFFF" d="M11.256,18.306v-0.441h-0.441h-2.1H8.273v0.441v2.54v0.636H7.86c-0.06,0-0.116,0.022-0.157,0.064
					c-0.041,0.04-0.065,0.097-0.065,0.156v3.81c0,0.059,0.024,0.115,0.065,0.156s0.098,0.066,0.157,0.066h3.809
					c0.06,0,0.114-0.024,0.156-0.066c0.043-0.042,0.065-0.097,0.065-0.156v-3.81c0-0.06-0.022-0.116-0.065-0.156
					c-0.042-0.042-0.098-0.064-0.156-0.064h-0.413v-0.636V18.306z M8.715,18.306h2.1v3.176h-2.1V18.306z M11.449,21.923v3.369H8.08
					v-3.369H11.449z"/>
				<path fill="#1E6531" d="M8.937,22.558c-0.059,0-0.115,0.023-0.156,0.065c-0.041,0.041-0.065,0.098-0.065,0.155v0.828v0.829
					c0,0.058,0.024,0.114,0.065,0.156c0.041,0.041,0.098,0.063,0.156,0.063h1.655c0.061,0,0.115-0.021,0.158-0.063
					c0.04-0.042,0.064-0.098,0.064-0.156v-0.829v-0.828c0-0.058-0.024-0.114-0.064-0.155c-0.042-0.042-0.098-0.065-0.158-0.065
					H8.937z"/>
			</g>
			<rect x="8.715" y="18.306" fill="#81BEA9" width="2.099" height="3.176"/>
		</g>
		<g>
			<rect x="29.142" y="18.306" fill="#81BEA9" width="2.1" height="3.176"/>
			<g>
				<path fill="#00CD00" d="M31.876,25.292v-3.369h-3.369v3.369H31.876z M29.143,23.606v-0.828c0-0.058,0.023-0.114,0.064-0.155
					c0.04-0.042,0.097-0.065,0.155-0.065h1.657c0.058,0,0.115,0.023,0.155,0.065c0.041,0.041,0.066,0.098,0.066,0.155v0.828v0.829
					c0,0.059-0.024,0.114-0.066,0.156c-0.04,0.042-0.097,0.063-0.155,0.063h-1.657c-0.057,0-0.115-0.022-0.155-0.063
					c-0.041-0.042-0.064-0.099-0.064-0.156V23.606z"/>
				<path fill="#FFFFFF" d="M31.684,18.306v-0.441h-0.442h-2.098h-0.442v0.441v2.54v0.636h-0.415c-0.058,0-0.115,0.022-0.155,0.064
					c-0.041,0.04-0.066,0.097-0.066,0.156v3.81c0,0.059,0.025,0.115,0.066,0.156c0.04,0.041,0.098,0.066,0.155,0.066h3.811
					c0.059,0,0.114-0.024,0.157-0.066c0.041-0.042,0.063-0.097,0.063-0.156v-3.81c0-0.06-0.022-0.116-0.063-0.156
					c-0.041-0.042-0.099-0.064-0.157-0.064h-0.413v-0.636V18.306z M29.144,18.306h2.098v3.176h-2.098V18.306z M31.877,21.923v3.369
					h-3.369v-3.369H31.877z"/>
				<path fill="#1E6531" d="M29.362,22.558c-0.059,0-0.115,0.023-0.155,0.065c-0.041,0.041-0.064,0.098-0.064,0.155v0.828v0.829
					c0,0.058,0.023,0.114,0.064,0.156c0.04,0.041,0.099,0.063,0.155,0.063h1.657c0.059,0,0.115-0.021,0.155-0.063
					c0.042-0.042,0.066-0.098,0.066-0.156v-0.829v-0.828c0-0.058-0.025-0.114-0.066-0.155c-0.04-0.042-0.098-0.065-0.155-0.065
					H29.362z"/>
			</g>
		</g>
	</g>
</g>
</svg>
