<?xml version="1.0" encoding="utf-8"?>
<!-- Generator: Adobe Illustrator 16.0.3, SVG Export Plug-In . SVG Version: 6.00 Build 0)  -->
<!DOCTYPE svg PUBLIC "-//W3C//DTD SVG 1.1//EN" "http://www.w3.org/Graphics/SVG/1.1/DTD/svg11.dtd">
<svg version="1.1" id="Layer_1" xmlns="http://www.w3.org/2000/svg" xmlns:xlink="http://www.w3.org/1999/xlink" x="0px" y="0px"
	 width="40px" height="40px" viewBox="0 0 40 40" enable-background="new 0 0 40 40" xml:space="preserve">
<g>
	<path fill="#1E6531" d="M-132.219,31.82c0.16-0.162,0.252-0.385,0.252-0.613v-7.352c0-0.227-0.092-0.449-0.252-0.611
		c-0.162-0.16-0.385-0.254-0.613-0.254h-13.567v-3.123c0-0.326-0.185-0.626-0.476-0.772c-0.29-0.146-0.641-0.117-0.903,0.076
		l-10.354,7.641c-0.221,0.162-0.352,0.42-0.352,0.693c0,0.275,0.13,0.533,0.351,0.697l4.314,3.203
		c-0.178,0.719-0.273,1.469-0.273,2.242c0,1.115,0.197,2.187,0.558,3.18h-4.084c-0.241,0-0.476,0.098-0.646,0.268
		c-0.171,0.171-0.269,0.406-0.269,0.647v7.351c0,0.242,0.098,0.478,0.269,0.647s0.405,0.268,0.646,0.268h12.492v3.074
		c0,0.345,0.194,0.662,0.502,0.816c0.307,0.155,0.679,0.124,0.955-0.08l10.355-7.641c0.232-0.172,0.371-0.443,0.371-0.734
		c0-0.29-0.137-0.563-0.369-0.735l-3.293-2.445c0.775-1.362,1.223-2.938,1.223-4.615c0-0.537-0.049-1.063-0.135-1.576h2.686
		C-132.604,32.072-132.381,31.98-132.219,31.82z M-144.738,42.014c-4.611,0-8.363-3.753-8.363-8.365
		c0-4.613,3.752-8.365,8.363-8.365c4.613,0,8.365,3.752,8.365,8.365C-136.373,38.261-140.125,42.014-144.738,42.014z"/>
	<path fill="#FFFFFF" d="M-153.101,33.648c0,4.612,3.752,8.365,8.363,8.365c4.613,0,8.365-3.753,8.365-8.365
		c0-4.613-3.752-8.365-8.365-8.365C-149.349,25.283-153.101,29.035-153.101,33.648z M-138.217,33.648
		c0,3.552-2.879,6.432-6.432,6.432c-3.551,0-6.43-2.88-6.43-6.432c0-3.553,2.879-6.432,6.43-6.432
		C-141.096,27.217-138.217,30.096-138.217,33.648z"/>
	<path fill="#FFFFFF" d="M-144.875,38.555h0.737c0.221,0,0.4-0.179,0.4-0.4V37.47c0.59-0.088,1.102-0.272,1.539-0.558
		c0.686-0.454,1.039-1.078,1.055-1.877c0.01-0.498-0.129-0.92-0.416-1.268c-0.465-0.555-1.191-0.902-2.178-1.041V31.34
		c0.174,0.082,0.342,0.191,0.502,0.332c0.1,0.082,0.215,0.123,0.344,0.125c0.105,0,0.252-0.074,0.252-0.074h0.002l0.824-0.518
		c0.113-0.072,0.172-0.162,0.174-0.273c0-0.09-0.035-0.166-0.107-0.234c-0.516-0.584-1.18-0.947-1.99-1.088v-0.781
		c0-0.221-0.18-0.402-0.4-0.402h-0.737c-0.221,0-0.402,0.182-0.402,0.402v0.76c-0.381,0.053-0.725,0.15-1.031,0.289
		c-0.991,0.451-1.476,1.127-1.459,2.021c0.008,0.441,0.141,0.832,0.397,1.172c0.43,0.576,1.128,0.938,2.093,1.086v1.731
		c-0.416-0.147-0.811-0.423-1.183-0.825c-0.081-0.105-0.189-0.158-0.326-0.158c-0.073,0-0.22,0.063-0.22,0.063l-0.002,0.002
		l-0.75,0.441c-0.129,0.074-0.191,0.173-0.189,0.294c0.003,0.08,0.031,0.15,0.088,0.214c0.195,0.273,0.458,0.534,0.786,0.784
		c0.531,0.408,1.131,0.663,1.796,0.769v0.684C-145.278,38.376-145.096,38.555-144.875,38.555z M-143.738,34.342
		c0.398,0.125,0.6,0.357,0.598,0.697c-0.004,0.316-0.148,0.563-0.436,0.737c-0.051,0.032-0.105,0.059-0.162,0.085V34.342z
		 M-145.763,31.904c-0.002-0.248,0.141-0.441,0.43-0.578l0.056-0.023v1.23C-145.598,32.408-145.76,32.199-145.763,31.904z"/>
	<path fill="#00CD00" d="M-145.763,31.904c0.003,0.295,0.165,0.504,0.485,0.629v-1.23l-0.056,0.023
		C-145.623,31.463-145.765,31.656-145.763,31.904z"/>
	<path fill="#00CD00" d="M-143.738,35.861c0.057-0.026,0.111-0.053,0.162-0.085c0.287-0.174,0.432-0.421,0.436-0.737
		c0.002-0.34-0.199-0.572-0.598-0.697V35.861z"/>
	<path fill="#00CD00" d="M-151.079,33.648c0,3.552,2.879,6.432,6.43,6.432c3.553,0,6.432-2.88,6.432-6.432
		c0-3.553-2.879-6.432-6.432-6.432C-148.2,27.217-151.079,30.096-151.079,33.648z M-143.738,28.828v0.781
		c0.811,0.141,1.475,0.504,1.99,1.088c0.072,0.068,0.107,0.145,0.107,0.234c-0.002,0.111-0.061,0.201-0.174,0.273l-0.824,0.518
		h-0.002c0,0-0.146,0.074-0.252,0.074c-0.129-0.002-0.244-0.043-0.344-0.125c-0.16-0.141-0.328-0.25-0.502-0.332v1.387
		c0.986,0.139,1.713,0.486,2.178,1.041c0.287,0.348,0.426,0.77,0.416,1.268c-0.016,0.799-0.369,1.423-1.055,1.877
		c-0.438,0.285-0.949,0.47-1.539,0.558v0.685c0,0.222-0.18,0.4-0.4,0.4h-0.737c-0.221,0-0.402-0.179-0.402-0.4v-0.684
		c-0.665-0.105-1.265-0.36-1.796-0.769c-0.328-0.25-0.591-0.511-0.786-0.784c-0.057-0.063-0.085-0.134-0.088-0.214
		c-0.002-0.121,0.061-0.22,0.189-0.294l0.75-0.441l0.002-0.002c0,0,0.146-0.063,0.22-0.063c0.137,0,0.245,0.053,0.326,0.158
		c0.372,0.402,0.767,0.678,1.183,0.825v-1.731c-0.965-0.148-1.663-0.51-2.093-1.086c-0.257-0.34-0.39-0.73-0.397-1.172
		c-0.017-0.895,0.468-1.57,1.459-2.021c0.307-0.139,0.65-0.236,1.031-0.289v-0.76c0-0.221,0.182-0.402,0.402-0.402h0.737
		C-143.918,28.426-143.738,28.607-143.738,28.828z"/>
</g>
<g>
	<path fill="none" d="M-65.794,7.054c-0.545,0-1.041-0.164-1.412-0.443l-0.119-0.108v1.312h13.65V6.502l-0.119,0.108
		c-0.372,0.279-0.868,0.443-1.412,0.443H-65.794z"/>
	<path fill="#1E6531" d="M-67.765,4.646c-0.131,0.135-0.247,0.279-0.34,0.441c-0.165,0.287-0.263,0.618-0.262,0.966v1.761h1.09
		V6.502c-0.298-0.27-0.496-0.624-0.496-1.025V4.7L-67.765,4.646z"/>
	<path fill="#1E6531" d="M-53.675,6.502v1.312h1.089V6.053c0-0.348-0.097-0.679-0.262-0.966c-0.093-0.161-0.209-0.305-0.339-0.438
		L-53.18,4.7v0.776C-53.18,5.878-53.378,6.232-53.675,6.502z"/>
	<path fill="#81BEA9" d="M-53.794,3.565c-0.372-0.278-0.868-0.443-1.412-0.443h-10.588c-0.545,0-1.041,0.165-1.412,0.443
		c-0.353,0.265-0.589,0.647-0.607,1.08L-67.821,4.7v0.776c0,0.401,0.198,0.756,0.496,1.025l0.119,0.108
		c0.371,0.279,0.867,0.443,1.412,0.443h10.588c0.544,0,1.04-0.164,1.412-0.443l0.119-0.108c0.297-0.27,0.495-0.624,0.495-1.025V4.7
		l-0.007-0.052C-53.205,4.214-53.44,3.83-53.794,3.565z"/>
	<g>
		<path fill="#1E6531" d="M-72.796,21.546c0.042-0.042,0.099-0.064,0.156-0.064h0.415v-0.636h-3.931v13.088h31.31V20.846h-3.93
			v0.636h0.415c0.058,0,0.115,0.022,0.155,0.064c0.042,0.04,0.064,0.097,0.064,0.156v3.81c0,0.06-0.022,0.114-0.064,0.156
			s-0.098,0.066-0.155,0.066h-3.812c-0.058,0-0.114-0.025-0.155-0.066s-0.066-0.098-0.066-0.156v-3.81
			c0-0.06,0.025-0.116,0.066-0.156c0.041-0.042,0.098-0.064,0.155-0.064h0.415v-0.636h-17.486v0.636h0.414
			c0.058,0,0.114,0.022,0.155,0.064c0.042,0.04,0.065,0.097,0.065,0.156v3.81c0,0.06-0.023,0.114-0.065,0.156
			c-0.041,0.042-0.098,0.066-0.155,0.066h-3.811c-0.058,0-0.114-0.025-0.156-0.066c-0.041-0.041-0.064-0.098-0.064-0.156v-3.81
			C-72.86,21.643-72.837,21.586-72.796,21.546z"/>
		<path fill="#1E6531" d="M-78.503,20.846V33.72c0,1.744,1.414,3.158,3.16,3.158h29.686c1.745,0,3.159-1.414,3.159-3.158V20.846
			h-1.907v13.309v0.221h-32.193V20.846H-78.503z"/>
		<polygon fill="#81BEA9" points="-76.599,20.846 -76.599,34.375 -44.404,34.375 -44.404,34.154 -44.404,20.846 -44.846,20.846 
			-44.846,33.934 -76.155,33.934 -76.155,20.846 		"/>
		<path fill="#00CD00" d="M-48.775,20.846h3.93h0.44h1.907h0.718c0.059,0,0.114-0.023,0.155-0.064
			c0.043-0.042,0.065-0.098,0.065-0.156v-9.498c0-1.83-1.482-3.313-3.313-3.313h-7.713h-1.089h-13.651h-1.089h-7.715
			c-1.829,0.001-3.311,1.483-3.311,3.313v9.498c0,0.059,0.022,0.114,0.063,0.156c0.042,0.041,0.097,0.064,0.156,0.064h0.718h1.904
			h0.443h3.931v-2.54v-0.441h0.439h2.1h0.441v0.441v2.54h17.487v-2.54v-0.441h0.441h2.099h0.441v0.441V20.846z"/>
		<g>
			<g>
				<path fill="#00CD00" d="M-69.051,25.292v-3.369h-3.369v3.369H-69.051z M-71.785,23.606v-0.828c0-0.058,0.024-0.114,0.065-0.155
					c0.04-0.042,0.098-0.065,0.156-0.065h1.655c0.059,0,0.116,0.023,0.158,0.065c0.04,0.041,0.064,0.098,0.064,0.155v0.828v0.829
					c0,0.059-0.024,0.114-0.064,0.156c-0.043,0.042-0.098,0.063-0.158,0.063h-1.655c-0.059,0-0.116-0.022-0.156-0.063
					c-0.041-0.042-0.065-0.099-0.065-0.156V23.606z"/>
				<path fill="#FFFFFF" d="M-69.244,18.306v-0.441h-0.441h-2.1h-0.441v0.441v2.54v0.636h-0.413c-0.06,0-0.116,0.022-0.157,0.064
					c-0.041,0.04-0.065,0.097-0.065,0.156v3.81c0,0.059,0.024,0.115,0.065,0.156s0.098,0.066,0.157,0.066h3.809
					c0.06,0,0.114-0.024,0.156-0.066c0.043-0.042,0.065-0.097,0.065-0.156v-3.81c0-0.06-0.022-0.116-0.065-0.156
					c-0.042-0.042-0.098-0.064-0.156-0.064h-0.413v-0.636V18.306z M-71.785,18.306h2.1v3.176h-2.1V18.306z M-69.051,21.923v3.369
					h-3.369v-3.369H-69.051z"/>
				<path fill="#1E6531" d="M-71.563,22.558c-0.059,0-0.115,0.023-0.156,0.065c-0.041,0.041-0.065,0.098-0.065,0.155v0.828v0.829
					c0,0.058,0.024,0.114,0.065,0.156c0.041,0.041,0.098,0.063,0.156,0.063h1.655c0.061,0,0.115-0.021,0.158-0.063
					c0.04-0.042,0.064-0.098,0.064-0.156v-0.829v-0.828c0-0.058-0.024-0.114-0.064-0.155c-0.042-0.042-0.098-0.065-0.158-0.065
					H-71.563z"/>
			</g>
			<rect x="-71.785" y="18.306" fill="#81BEA9" width="2.099" height="3.176"/>
		</g>
		<g>
			<rect x="-51.358" y="18.306" fill="#81BEA9" width="2.1" height="3.176"/>
			<g>
				<path fill="#00CD00" d="M-48.624,25.292v-3.369h-3.369v3.369H-48.624z M-51.357,23.606v-0.828c0-0.058,0.023-0.114,0.064-0.155
					c0.04-0.042,0.097-0.065,0.155-0.065h1.657c0.058,0,0.115,0.023,0.155,0.065c0.041,0.041,0.066,0.098,0.066,0.155v0.828v0.829
					c0,0.059-0.024,0.114-0.066,0.156c-0.04,0.042-0.097,0.063-0.155,0.063h-1.657c-0.057,0-0.115-0.022-0.155-0.063
					c-0.041-0.042-0.064-0.099-0.064-0.156V23.606z"/>
				<path fill="#FFFFFF" d="M-48.816,18.306v-0.441h-0.442h-2.098h-0.442v0.441v2.54v0.636h-0.415c-0.058,0-0.115,0.022-0.155,0.064
					c-0.041,0.04-0.066,0.097-0.066,0.156v3.81c0,0.059,0.025,0.115,0.066,0.156c0.04,0.041,0.098,0.066,0.155,0.066h3.811
					c0.059,0,0.114-0.024,0.157-0.066c0.041-0.042,0.063-0.097,0.063-0.156v-3.81c0-0.06-0.022-0.116-0.063-0.156
					c-0.041-0.042-0.099-0.064-0.157-0.064h-0.413v-0.636V18.306z M-51.356,18.306h2.098v3.176h-2.098V18.306z M-48.623,21.923
					v3.369h-3.369v-3.369H-48.623z"/>
				<path fill="#1E6531" d="M-51.138,22.558c-0.059,0-0.115,0.023-0.155,0.065c-0.041,0.041-0.064,0.098-0.064,0.155v0.828v0.829
					c0,0.058,0.023,0.114,0.064,0.156c0.04,0.041,0.099,0.063,0.155,0.063h1.657c0.059,0,0.115-0.021,0.155-0.063
					c0.042-0.042,0.066-0.098,0.066-0.156v-0.829v-0.828c0-0.058-0.025-0.114-0.066-0.155c-0.04-0.042-0.098-0.065-0.155-0.065
					H-51.138z"/>
			</g>
		</g>
	</g>
</g>
<path fill="#00CD00" d="M10.63,25.464c-0.038,0.005-0.068,0.022-0.104,0.031c-2.222-0.429-3.534,1.932-3.228,3.968
	c0.279,1.855,2.294,3.31,4.111,2.646C14.436,31.005,14.485,25.012,10.63,25.464z M11.24,30.284c-0.772,0.78-1.866,0.071-2.214-0.772
	c-0.244-0.589-0.208-1.251,0.077-1.815c0.171-0.339,0.543-0.554,0.942-0.737c0.093,0.076,0.206,0.14,0.359,0.173
	c0.804,0.17,1.347,0.232,1.538,1.129C12.093,28.966,11.725,29.794,11.24,30.284z"/>
<path fill="#00CD00" d="M32.35,27.949c-0.215-0.882-0.776-1.806-1.511-2.346c-0.544-0.4-1.486-0.608-2.069-0.214
	c-0.661-0.092-1.399,0.233-1.913,0.645c-0.815,0.653-1.179,1.569-1.281,2.586c-0.214,2.119,1.611,3.971,3.73,3.588
	C31.325,31.843,32.854,30.013,32.35,27.949z M29.286,30.345c-1.104,0.396-1.887-0.43-1.903-1.494
	c-0.018-1.079,0.846-1.471,1.626-1.932c0.262,0.003,0.545-0.06,0.739,0.099c0.373,0.303,0.572,0.802,0.727,1.24
	C30.817,29.229,30.22,30.009,29.286,30.345z"/>
<path fill="#1E6531" d="M38.811,25.761c-0.205-0.951-1.111-0.909-1.096-2.087c0.024-1.836,0.438-4.113-0.661-5.721
	c-0.854-1.251-3.133-1.059-4.463-0.676c-1.007-2.455-2.063-6.228-3.949-8.029c-1.558-1.486-3.509-1.302-5.55-1.271
	c-3.903,0.061-7.81,0.192-11.715,0.172C8.74,8.137,4.805,7.026,2.355,8.461C1.01,9.25,1.289,11.319,1.224,12.599
	c-0.178,3.491,0.175,7.022-0.146,10.5C0.79,26.23,1.109,30.17,5.345,28.721c0.047-0.017,0.078-0.048,0.107-0.079
	c0.112,0.009,0.227-0.014,0.306-0.102c0.329-0.361,0.411-0.731,0.535-1.21c0.355-1.367,1.069-2.165,2.446-2.599
	c2.594-0.817,5.608,0.61,6.288,3.251c0.014,0.055,0.043,0.097,0.069,0.141c-0.021,0.197,0.097,0.41,0.338,0.395
	c2.766-0.181,5.471-0.184,8.171,0.542c0.356,0.095,0.591-0.17,0.626-0.452c0.043-0.039,0.078-0.088,0.092-0.152
	c0.457-2.275,1.559-3.702,3.884-4.263c1.422-0.343,2.836,0.03,3.913,1.001c0.958,0.864,0.849,2.413,1.43,3.485
	c0.177,0.327,0.583,0.313,0.812,0.101c0.031,0.009,0.057,0.023,0.092,0.027c0.961,0.094,4.102,0.445,4.456-0.843
	C39.098,27.281,38.957,26.44,38.811,25.761z M21.947,10.723c1.763-0.098,3.765-0.195,5.131,1.052
	c1.048,0.958,1.609,2.724,2.24,3.986c0.699,1.398-2.542,0.664-3.495,0.642c-1.284-0.03-2.541,0.037-3.791,0.24
	C21.912,14.662,21.831,12.683,21.947,10.723z"/>
</svg>
