<?xml version="1.0" encoding="utf-8"?>
<!-- Generator: Adobe Illustrator 16.0.3, SVG Export Plug-In . SVG Version: 6.00 Build 0)  -->
<!DOCTYPE svg PUBLIC "-//W3C//DTD SVG 1.1//EN" "http://www.w3.org/Graphics/SVG/1.1/DTD/svg11.dtd">
<svg version="1.1" id="Layer_1" xmlns="http://www.w3.org/2000/svg" xmlns:xlink="http://www.w3.org/1999/xlink" x="0px" y="0px"
	 width="40px" height="40px" viewBox="0 0 40 40" enable-background="new 0 0 40 40" xml:space="preserve">
<g>
	<path fill="#1E6531" d="M33.031,17.32c0.16-0.161,0.252-0.385,0.252-0.612V9.356c0-0.228-0.092-0.45-0.252-0.611
		c-0.162-0.161-0.385-0.254-0.613-0.254H18.851V5.368c0-0.326-0.185-0.626-0.476-0.772c-0.29-0.146-0.641-0.117-0.903,0.076
		L7.118,12.312c-0.221,0.163-0.352,0.42-0.352,0.694s0.13,0.532,0.351,0.696l4.314,3.204c-0.178,0.718-0.273,1.469-0.273,2.241
		c0,1.116,0.197,2.187,0.558,3.18H7.631c-0.241,0-0.476,0.098-0.646,0.268c-0.171,0.171-0.269,0.406-0.269,0.647v7.351
		c0,0.242,0.098,0.478,0.269,0.647s0.405,0.268,0.646,0.268h12.492v3.074c0,0.345,0.194,0.662,0.502,0.816
		c0.307,0.155,0.679,0.124,0.955-0.08l10.355-7.641c0.232-0.172,0.371-0.443,0.371-0.734c0-0.29-0.137-0.563-0.369-0.735
		l-3.293-2.445c0.775-1.362,1.223-2.938,1.223-4.616c0-0.537-0.049-1.063-0.135-1.575h2.686
		C32.646,17.573,32.869,17.48,33.031,17.32z M20.512,27.514c-4.611,0-8.363-3.753-8.363-8.366c0-4.613,3.752-8.364,8.363-8.364
		c4.613,0,8.365,3.751,8.365,8.364C28.877,23.761,25.125,27.514,20.512,27.514z"/>
	<path fill="#FFFFFF" d="M12.149,19.148c0,4.613,3.752,8.366,8.363,8.366c4.613,0,8.365-3.753,8.365-8.366
		c0-4.613-3.752-8.364-8.365-8.364C15.901,10.784,12.149,14.535,12.149,19.148z M27.033,19.148c0,3.552-2.879,6.432-6.432,6.432
		c-3.551,0-6.43-2.88-6.43-6.432c0-3.552,2.879-6.432,6.43-6.432C24.154,12.716,27.033,15.596,27.033,19.148z"/>
	<path fill="#FFFFFF" d="M20.375,24.055h0.737c0.221,0,0.4-0.179,0.4-0.4V22.97c0.59-0.088,1.102-0.272,1.539-0.558
		c0.686-0.454,1.039-1.078,1.055-1.877c0.01-0.497-0.129-0.92-0.416-1.268c-0.465-0.555-1.191-0.902-2.178-1.04V16.84
		c0.174,0.082,0.342,0.191,0.502,0.331c0.1,0.082,0.215,0.124,0.344,0.125c0.105,0,0.252-0.073,0.252-0.073l0.002-0.001l0.824-0.518
		c0.113-0.071,0.172-0.162,0.174-0.273c0-0.089-0.035-0.166-0.107-0.233c-0.516-0.585-1.18-0.948-1.99-1.089v-0.78
		c0-0.222-0.18-0.402-0.4-0.402h-0.737c-0.221,0-0.402,0.181-0.402,0.402v0.76c-0.381,0.053-0.725,0.149-1.031,0.289
		c-0.991,0.451-1.476,1.127-1.459,2.021c0.008,0.441,0.141,0.831,0.397,1.171c0.43,0.576,1.128,0.938,2.093,1.087v1.731
		c-0.416-0.147-0.811-0.422-1.183-0.825c-0.081-0.106-0.189-0.159-0.326-0.159c-0.073,0-0.22,0.063-0.22,0.063l-0.002,0.002
		l-0.75,0.44c-0.129,0.074-0.191,0.173-0.189,0.294c0.003,0.08,0.031,0.15,0.088,0.214c0.195,0.273,0.458,0.534,0.786,0.784
		c0.531,0.408,1.131,0.663,1.796,0.769v0.684C19.972,23.876,20.154,24.055,20.375,24.055z M21.512,19.842
		c0.398,0.125,0.6,0.356,0.598,0.697c-0.004,0.316-0.148,0.563-0.436,0.737c-0.051,0.032-0.105,0.059-0.162,0.085V19.842z
		 M19.487,17.404c-0.002-0.248,0.141-0.441,0.43-0.578l0.056-0.022v1.229C19.652,17.909,19.49,17.7,19.487,17.404z"/>
	<path fill="#00CD00" d="M19.487,17.404c0.003,0.296,0.165,0.505,0.485,0.629v-1.229l-0.056,0.022
		C19.627,16.962,19.485,17.156,19.487,17.404z"/>
	<path fill="#00CD00" d="M21.512,21.361c0.057-0.026,0.111-0.053,0.162-0.085c0.287-0.174,0.432-0.42,0.436-0.737
		c0.002-0.341-0.199-0.572-0.598-0.697V21.361z"/>
	<path fill="#00CD00" d="M14.171,19.148c0,3.552,2.879,6.432,6.43,6.432c3.553,0,6.432-2.88,6.432-6.432
		c0-3.552-2.879-6.432-6.432-6.432C17.05,12.716,14.171,15.596,14.171,19.148z M21.512,14.329v0.78
		c0.811,0.141,1.475,0.504,1.99,1.089c0.072,0.067,0.107,0.145,0.107,0.233c-0.002,0.111-0.061,0.202-0.174,0.273l-0.824,0.518
		l-0.002,0.001c0,0-0.146,0.073-0.252,0.073c-0.129-0.001-0.244-0.043-0.344-0.125c-0.16-0.14-0.328-0.249-0.502-0.331v1.387
		c0.986,0.138,1.713,0.485,2.178,1.04c0.287,0.348,0.426,0.771,0.416,1.268c-0.016,0.799-0.369,1.423-1.055,1.877
		c-0.438,0.285-0.949,0.47-1.539,0.558v0.685c0,0.222-0.18,0.4-0.4,0.4h-0.737c-0.221,0-0.402-0.179-0.402-0.4v-0.684
		c-0.665-0.105-1.265-0.36-1.796-0.769c-0.328-0.25-0.591-0.511-0.786-0.784c-0.057-0.063-0.085-0.134-0.088-0.214
		c-0.002-0.121,0.061-0.22,0.189-0.294l0.75-0.44l0.002-0.002c0,0,0.146-0.063,0.22-0.063c0.137,0,0.245,0.053,0.326,0.159
		c0.372,0.402,0.767,0.677,1.183,0.825v-1.731c-0.965-0.148-1.663-0.511-2.093-1.087c-0.257-0.34-0.39-0.729-0.397-1.171
		c-0.017-0.895,0.468-1.57,1.459-2.021c0.307-0.14,0.65-0.236,1.031-0.289v-0.76c0-0.222,0.182-0.402,0.402-0.402h0.737
		C21.332,13.926,21.512,14.107,21.512,14.329z"/>
</g>
<g>
	<path fill="none" d="M-65.794,7.054c-0.545,0-1.041-0.164-1.412-0.443l-0.119-0.108v1.312h13.65V6.502l-0.119,0.108
		c-0.372,0.279-0.868,0.443-1.412,0.443H-65.794z"/>
	<path fill="#1E6531" d="M-67.765,4.646c-0.131,0.135-0.247,0.279-0.34,0.441c-0.165,0.287-0.263,0.618-0.262,0.966v1.761h1.09
		V6.502c-0.298-0.27-0.496-0.624-0.496-1.025V4.7L-67.765,4.646z"/>
	<path fill="#1E6531" d="M-53.675,6.502v1.312h1.089V6.053c0-0.348-0.097-0.679-0.262-0.966c-0.093-0.161-0.209-0.305-0.339-0.438
		L-53.18,4.7v0.776C-53.18,5.878-53.378,6.232-53.675,6.502z"/>
	<path fill="#81BEA9" d="M-53.794,3.565c-0.372-0.278-0.868-0.443-1.412-0.443h-10.588c-0.545,0-1.041,0.165-1.412,0.443
		c-0.353,0.265-0.589,0.647-0.607,1.08L-67.821,4.7v0.776c0,0.401,0.198,0.756,0.496,1.025l0.119,0.108
		c0.371,0.279,0.867,0.443,1.412,0.443h10.588c0.544,0,1.04-0.164,1.412-0.443l0.119-0.108c0.297-0.27,0.495-0.624,0.495-1.025V4.7
		l-0.007-0.052C-53.205,4.214-53.44,3.83-53.794,3.565z"/>
	<g>
		<path fill="#1E6531" d="M-72.796,21.546c0.042-0.042,0.099-0.064,0.156-0.064h0.415v-0.636h-3.931v13.088h31.31V20.846h-3.93
			v0.636h0.415c0.058,0,0.115,0.022,0.155,0.064c0.042,0.04,0.064,0.097,0.064,0.156v3.81c0,0.06-0.022,0.114-0.064,0.156
			s-0.098,0.066-0.155,0.066h-3.812c-0.058,0-0.114-0.025-0.155-0.066s-0.066-0.098-0.066-0.156v-3.81
			c0-0.06,0.025-0.116,0.066-0.156c0.041-0.042,0.098-0.064,0.155-0.064h0.415v-0.636h-17.486v0.636h0.414
			c0.058,0,0.114,0.022,0.155,0.064c0.042,0.04,0.065,0.097,0.065,0.156v3.81c0,0.06-0.023,0.114-0.065,0.156
			c-0.041,0.042-0.098,0.066-0.155,0.066h-3.811c-0.058,0-0.114-0.025-0.156-0.066c-0.041-0.041-0.064-0.098-0.064-0.156v-3.81
			C-72.86,21.643-72.837,21.586-72.796,21.546z"/>
		<path fill="#1E6531" d="M-78.503,20.846V33.72c0,1.744,1.414,3.158,3.16,3.158h29.686c1.745,0,3.159-1.414,3.159-3.158V20.846
			h-1.907v13.309v0.221h-32.193V20.846H-78.503z"/>
		<polygon fill="#81BEA9" points="-76.599,20.846 -76.599,34.375 -44.404,34.375 -44.404,34.154 -44.404,20.846 -44.846,20.846 
			-44.846,33.934 -76.155,33.934 -76.155,20.846 		"/>
		<path fill="#00CD00" d="M-48.775,20.846h3.93h0.44h1.907h0.718c0.059,0,0.114-0.023,0.155-0.064
			c0.043-0.042,0.065-0.098,0.065-0.156v-9.498c0-1.83-1.482-3.313-3.313-3.313h-7.713h-1.089h-13.651h-1.089h-7.715
			c-1.829,0.001-3.311,1.483-3.311,3.313v9.498c0,0.059,0.022,0.114,0.063,0.156c0.042,0.041,0.097,0.064,0.156,0.064h0.718h1.904
			h0.443h3.931v-2.54v-0.441h0.439h2.1h0.441v0.441v2.54h17.487v-2.54v-0.441h0.441h2.099h0.441v0.441V20.846z"/>
		<g>
			<g>
				<path fill="#00CD00" d="M-69.051,25.292v-3.369h-3.369v3.369H-69.051z M-71.785,23.606v-0.828c0-0.058,0.024-0.114,0.065-0.155
					c0.04-0.042,0.098-0.065,0.156-0.065h1.655c0.059,0,0.116,0.023,0.158,0.065c0.04,0.041,0.064,0.098,0.064,0.155v0.828v0.829
					c0,0.059-0.024,0.114-0.064,0.156c-0.043,0.042-0.098,0.063-0.158,0.063h-1.655c-0.059,0-0.116-0.022-0.156-0.063
					c-0.041-0.042-0.065-0.099-0.065-0.156V23.606z"/>
				<path fill="#FFFFFF" d="M-69.244,18.306v-0.441h-0.441h-2.1h-0.441v0.441v2.54v0.636h-0.413c-0.06,0-0.116,0.022-0.157,0.064
					c-0.041,0.04-0.065,0.097-0.065,0.156v3.81c0,0.059,0.024,0.115,0.065,0.156s0.098,0.066,0.157,0.066h3.809
					c0.06,0,0.114-0.024,0.156-0.066c0.043-0.042,0.065-0.097,0.065-0.156v-3.81c0-0.06-0.022-0.116-0.065-0.156
					c-0.042-0.042-0.098-0.064-0.156-0.064h-0.413v-0.636V18.306z M-71.785,18.306h2.1v3.176h-2.1V18.306z M-69.051,21.923v3.369
					h-3.369v-3.369H-69.051z"/>
				<path fill="#1E6531" d="M-71.563,22.558c-0.059,0-0.115,0.023-0.156,0.065c-0.041,0.041-0.065,0.098-0.065,0.155v0.828v0.829
					c0,0.058,0.024,0.114,0.065,0.156c0.041,0.041,0.098,0.063,0.156,0.063h1.655c0.061,0,0.115-0.021,0.158-0.063
					c0.04-0.042,0.064-0.098,0.064-0.156v-0.829v-0.828c0-0.058-0.024-0.114-0.064-0.155c-0.042-0.042-0.098-0.065-0.158-0.065
					H-71.563z"/>
			</g>
			<rect x="-71.785" y="18.306" fill="#81BEA9" width="2.099" height="3.176"/>
		</g>
		<g>
			<rect x="-51.358" y="18.306" fill="#81BEA9" width="2.1" height="3.176"/>
			<g>
				<path fill="#00CD00" d="M-48.624,25.292v-3.369h-3.369v3.369H-48.624z M-51.357,23.606v-0.828c0-0.058,0.023-0.114,0.064-0.155
					c0.04-0.042,0.097-0.065,0.155-0.065h1.657c0.058,0,0.115,0.023,0.155,0.065c0.041,0.041,0.066,0.098,0.066,0.155v0.828v0.829
					c0,0.059-0.024,0.114-0.066,0.156c-0.04,0.042-0.097,0.063-0.155,0.063h-1.657c-0.057,0-0.115-0.022-0.155-0.063
					c-0.041-0.042-0.064-0.099-0.064-0.156V23.606z"/>
				<path fill="#FFFFFF" d="M-48.816,18.306v-0.441h-0.442h-2.098h-0.442v0.441v2.54v0.636h-0.415c-0.058,0-0.115,0.022-0.155,0.064
					c-0.041,0.04-0.066,0.097-0.066,0.156v3.81c0,0.059,0.025,0.115,0.066,0.156c0.04,0.041,0.098,0.066,0.155,0.066h3.811
					c0.059,0,0.114-0.024,0.157-0.066c0.041-0.042,0.063-0.097,0.063-0.156v-3.81c0-0.06-0.022-0.116-0.063-0.156
					c-0.041-0.042-0.099-0.064-0.157-0.064h-0.413v-0.636V18.306z M-51.356,18.306h2.098v3.176h-2.098V18.306z M-48.623,21.923
					v3.369h-3.369v-3.369H-48.623z"/>
				<path fill="#1E6531" d="M-51.138,22.558c-0.059,0-0.115,0.023-0.155,0.065c-0.041,0.041-0.064,0.098-0.064,0.155v0.828v0.829
					c0,0.058,0.023,0.114,0.064,0.156c0.04,0.041,0.099,0.063,0.155,0.063h1.657c0.059,0,0.115-0.021,0.155-0.063
					c0.042-0.042,0.066-0.098,0.066-0.156v-0.829v-0.828c0-0.058-0.025-0.114-0.066-0.155c-0.04-0.042-0.098-0.065-0.155-0.065
					H-51.138z"/>
			</g>
		</g>
	</g>
</g>
</svg>
